<?xml version="1.0" encoding="UTF-8"?>
<!DOCTYPE svg PUBLIC "-//W3C//DTD SVG 1.1//EN" "http://www.w3.org/Graphics/SVG/1.1/DTD/svg11.dtd">
<svg xmlns="http://www.w3.org/2000/svg" version="1.1" width="3840px" height="2160px" style="shape-rendering:geometricPrecision; text-rendering:geometricPrecision; image-rendering:optimizeQuality; fill-rule:evenodd; clip-rule:evenodd" xmlns:xlink="http://www.w3.org/1999/xlink">
<g><path style="opacity:1" fill="#040404" d="M 824.5,371.5 C 824.5,372.833 825.167,373.5 826.5,373.5C 831.804,380.989 836.97,388.656 842,396.5C 852.68,421.359 864.514,445.525 877.5,469C 882.777,473.137 888.777,475.304 895.5,475.5C 904.281,474.203 912.948,472.37 921.5,470C 931.119,467.992 937.619,471.492 941,480.5C 942.16,489.465 941.16,498.132 938,506.5C 931.726,513.776 925.059,520.776 918,527.5C 915.698,531.146 913.364,534.813 911,538.5C 909.798,541.774 908.798,545.107 908,548.5C 907.333,557.833 907.333,567.167 908,576.5C 917.002,626.179 927.669,675.512 940,724.5C 941.091,736.198 943.758,747.532 948,758.5C 953.52,772.054 958.853,785.721 964,799.5C 965.554,807.994 967.054,816.494 968.5,825C 968.333,826.833 968.167,828.667 968,830.5C 966.234,832.596 964.901,834.929 964,837.5C 960.271,839.582 956.271,840.915 952,841.5C 945.484,840.325 939.317,838.159 933.5,835C 932.333,833.167 931.167,831.333 930,829.5C 914.878,766.898 899.878,704.232 885,641.5C 879.84,623.47 873.173,606.137 865,589.5C 858.831,582.58 851.164,578.247 842,576.5C 832.094,579.068 822.26,581.901 812.5,585C 798.946,590.52 785.279,595.853 771.5,601C 759.693,604.608 748.36,603.275 737.5,597C 728.178,588.587 727.011,579.087 734,568.5C 738.714,563.558 744.214,559.725 750.5,557C 772.35,550.237 793.35,541.57 813.5,531C 823.262,524.906 831.429,517.073 838,507.5C 839.277,503.903 839.61,500.236 839,496.5C 832.371,462.612 821.371,430.279 806,399.5C 804.326,394.279 803.159,388.946 802.5,383.5C 804.558,375.275 809.725,370.275 818,368.5C 820.265,369.259 822.432,370.259 824.5,371.5 Z"/></g>
<g><path style="opacity:1" fill="#605a5e" d="M 824.5,371.5 C 825.5,371.833 826.167,372.5 826.5,373.5C 825.167,373.5 824.5,372.833 824.5,371.5 Z"/></g>
<g><path style="opacity:1" fill="#040404" d="M 3710.5,733.5 C 3711.92,734.451 3713.59,734.784 3715.5,734.5C 3727.41,739.252 3734.91,747.919 3738,760.5C 3739.81,766.392 3740.97,772.392 3741.5,778.5C 3741.5,783.833 3741.5,789.167 3741.5,794.5C 3740.94,814.865 3739.77,835.198 3738,855.5C 3733.57,907.527 3728.9,959.527 3724,1011.5C 3723.17,1024.99 3716.34,1033.83 3703.5,1038C 3696.93,1037.72 3690.43,1037.89 3684,1038.5C 3657.72,1033.89 3631.22,1030.39 3604.5,1028C 3519.52,1025.53 3434.52,1023.7 3349.5,1022.5C 3330.38,1022.65 3311.38,1024.15 3292.5,1027C 3288.95,1028.94 3285.29,1030.61 3281.5,1032C 3273.8,1039.23 3267.97,1047.73 3264,1057.5C 3260.41,1085.23 3256.41,1112.9 3252,1140.5C 3240.64,1200.29 3228.64,1259.95 3216,1319.5C 3213.77,1333.1 3212.11,1346.76 3211,1360.5C 3210.3,1390.17 3209.63,1419.84 3209,1449.5C 3208.19,1457.19 3207.19,1464.86 3206,1472.5C 3201.44,1484.06 3193.27,1491.9 3181.5,1496C 3166.83,1499.67 3152.16,1503.34 3137.5,1507C 3130.17,1510.33 3122.83,1513.67 3115.5,1517C 3081.82,1536.17 3047.82,1554.84 3013.5,1573C 2942.67,1605.58 2873.67,1641.24 2806.5,1680C 2793.08,1689.09 2779.41,1697.76 2765.5,1706C 2755.05,1711.72 2744.05,1716.06 2732.5,1719C 2718.62,1720.06 2708.45,1714.56 2702,1702.5C 2694.87,1683.28 2693.54,1663.61 2698,1643.5C 2709.26,1587.23 2711.59,1530.56 2705,1473.5C 2701.18,1465.42 2694.84,1460.76 2686,1459.5C 2676.58,1461.96 2667.41,1465.13 2658.5,1469C 2650.48,1473.7 2642.48,1478.37 2634.5,1483C 2619.17,1494.33 2603.83,1505.67 2588.5,1517C 2582.44,1523.06 2575.77,1528.39 2568.5,1533C 2560.11,1541.39 2551.11,1549.05 2541.5,1556C 2524.86,1570.97 2508.53,1586.3 2492.5,1602C 2451.75,1645.08 2410.75,1687.74 2369.5,1730C 2363,1735.09 2356,1739.42 2348.5,1743C 2340.66,1744.75 2332.82,1746.59 2325,1748.5C 2318.84,1747.34 2313.17,1745 2308,1741.5C 2306.87,1738.62 2306.21,1735.62 2306,1732.5C 2305.54,1689.84 2304.87,1647.17 2304,1604.5C 2301.64,1570.64 2297.64,1536.98 2292,1503.5C 2290.03,1470.5 2288.03,1437.5 2286,1404.5C 2284.5,1394.67 2280,1386.5 2272.5,1380C 2265.83,1376 2259.17,1372 2252.5,1368C 2174.13,1338.77 2094.13,1314.77 2012.5,1296C 1966.58,1286.69 1920.58,1277.69 1874.5,1269C 1832.96,1264.48 1791.29,1261.81 1749.5,1261C 1733.42,1258.99 1717.42,1256.49 1701.5,1253.5C 1683.81,1256.11 1671.64,1265.77 1665,1282.5C 1659.78,1317.72 1653.45,1352.72 1646,1387.5C 1643.42,1405.11 1641.42,1422.77 1640,1440.5C 1633.72,1464.51 1629.05,1488.85 1626,1513.5C 1620.66,1594.74 1618.33,1676.08 1619,1757.5C 1618.27,1764.49 1617.61,1771.49 1617,1778.5C 1608.16,1797.34 1594.99,1801.18 1577.5,1790C 1575.55,1787.93 1573.71,1785.76 1572,1783.5C 1563.01,1756.87 1558.01,1729.53 1557,1701.5C 1558.4,1694.3 1560.4,1687.3 1563,1680.5C 1568.28,1674.55 1573.61,1668.55 1579,1662.5C 1582.73,1657.71 1585.39,1652.38 1587,1646.5C 1595.27,1612.77 1602.27,1578.77 1608,1544.5C 1608.58,1525.83 1609.24,1507.16 1610,1488.5C 1621.02,1437.35 1628.69,1385.68 1633,1333.5C 1635.08,1321.78 1637.41,1310.11 1640,1298.5C 1640.67,1290.17 1640.67,1281.83 1640,1273.5C 1638.78,1263.54 1633.95,1256.04 1625.5,1251C 1604.01,1245.97 1582.68,1240.3 1561.5,1234C 1553.44,1230.89 1546.27,1226.39 1540,1220.5C 1536.73,1211.32 1538.9,1203.82 1546.5,1198C 1562.02,1192.65 1577.68,1191.15 1593.5,1193.5C 1595.22,1194.22 1597.05,1194.89 1599,1195.5C 1603.88,1195.34 1609.04,1194.67 1614.5,1193.5C 1634.13,1195.6 1648.3,1187.94 1657,1170.5C 1664.78,1143.71 1671.78,1116.71 1678,1089.5C 1679.67,1078.17 1681.33,1066.84 1683,1055.5C 1695.94,1001.78 1706.44,947.614 1714.5,893C 1713.23,881.429 1707.89,872.429 1698.5,866C 1695.18,865.392 1691.85,864.892 1688.5,864.5C 1639.82,873.242 1590.82,879.576 1541.5,883.5C 1531.38,883.502 1522.38,880.502 1514.5,874.5C 1512.83,873.008 1511.83,871.175 1511.5,869C 1513.55,859.948 1518.88,853.614 1527.5,850C 1537.41,848.009 1547.41,846.676 1557.5,846C 1573.51,845.219 1589.51,844.386 1605.5,843.5C 1610.06,845.701 1614.73,845.701 1619.5,843.5C 1645.79,843.278 1671.79,840.444 1697.5,835C 1754.94,822.065 1812.94,811.732 1871.5,804C 1885.54,801.208 1899.54,798.208 1913.5,795C 1916.82,794.502 1920.15,794.335 1923.5,794.5C 1927.11,794.211 1930.61,794.544 1934,795.5C 1935.95,794.891 1937.78,794.224 1939.5,793.5C 1941.72,792.631 1944.05,792.298 1946.5,792.5C 1947.53,793.249 1948.7,793.915 1950,794.5C 1952.94,793.872 1955.77,793.205 1958.5,792.5C 1974.5,792.167 1990.5,791.833 2006.5,791.5C 2009.72,793.707 2013.05,793.707 2016.5,791.5C 2027.83,791.093 2039.16,790.759 2050.5,790.5C 2054.39,792.703 2058.39,792.703 2062.5,790.5C 2076.16,789.855 2089.83,789.688 2103.5,790C 2115.79,792.627 2124.96,799.461 2131,810.5C 2133.68,817.692 2135.84,825.026 2137.5,832.5C 2137.68,835.727 2138.34,838.727 2139.5,841.5C 2139.68,844.727 2140.34,847.727 2141.5,850.5C 2144.84,862.189 2147.17,874.189 2148.5,886.5C 2148.75,890.04 2149.42,893.373 2150.5,896.5C 2154.53,914.738 2156.53,933.071 2156.5,951.5C 2157.32,976.81 2157.82,1002.14 2158,1027.5C 2158.78,1045.95 2160.62,1064.28 2163.5,1082.5C 2163.55,1086.08 2164.22,1089.41 2165.5,1092.5C 2173.75,1118.73 2177.58,1145.73 2177,1173.5C 2178.67,1187.17 2180.33,1200.84 2182,1214.5C 2185.48,1227.77 2188.65,1241.1 2191.5,1254.5C 2191.36,1260.71 2189.53,1266.37 2186,1271.5C 2181.75,1278.09 2177.08,1284.43 2172,1290.5C 2171.2,1293.71 2171.7,1296.71 2173.5,1299.5C 2181.26,1306.72 2190.26,1311.88 2200.5,1315C 2219.58,1320.04 2238.58,1325.37 2257.5,1331C 2271.1,1332.82 2280.27,1326.99 2285,1313.5C 2287.57,1296.95 2288.9,1280.28 2289,1263.5C 2289.93,1202.15 2289.27,1140.82 2287,1079.5C 2284.83,1059.64 2281.5,1039.98 2277,1020.5C 2277.64,999.205 2288.8,988.705 2310.5,989C 2321.17,988.685 2331.84,988.852 2342.5,989.5C 2343.53,990.249 2344.7,990.915 2346,991.5C 2348.3,991.788 2350.47,991.121 2352.5,989.5C 2385.02,990.415 2417.02,986.915 2448.5,979C 2458.78,977.96 2468.95,976.46 2479,974.5C 2479.67,975.252 2480.5,975.586 2481.5,975.5C 2485.77,975.203 2489.93,975.536 2494,976.5C 2496.28,975.883 2498.44,975.216 2500.5,974.5C 2513.2,973.023 2525.86,973.19 2538.5,975C 2545.5,976.668 2551.83,979.668 2557.5,984C 2558.91,985.993 2559.91,988.16 2560.5,990.5C 2560.59,991.496 2560.25,992.329 2559.5,993C 2560.09,993.464 2560.76,993.631 2561.5,993.5C 2562.08,997.716 2561.42,1001.88 2559.5,1006C 2556.87,1010.75 2554.37,1015.59 2552,1020.5C 2539.5,1040.84 2526.5,1060.84 2513,1080.5C 2504.6,1095.22 2497.6,1110.55 2492,1126.5C 2490.81,1134.26 2489.15,1141.92 2487,1149.5C 2478.23,1171.37 2470.89,1193.71 2465,1216.5C 2449.83,1264.01 2436.5,1312.01 2425,1360.5C 2413.4,1396.39 2388.57,1414.22 2350.5,1414C 2334.45,1419.22 2325.95,1430.39 2325,1447.5C 2324.56,1456.5 2324.06,1465.33 2323.5,1474C 2326.78,1499.44 2330.12,1524.94 2333.5,1550.5C 2333.67,1551.82 2333.34,1552.99 2332.5,1554C 2333.04,1554.72 2333.71,1555.22 2334.5,1555.5C 2339.23,1587.71 2343.4,1620.04 2347,1652.5C 2348.73,1658.39 2352.56,1662.06 2358.5,1663.5C 2359.99,1665.28 2361.99,1665.95 2364.5,1665.5C 2367.17,1665.07 2369.83,1664.57 2372.5,1664C 2380.44,1659.06 2388.11,1653.72 2395.5,1648C 2431.31,1610.49 2470.31,1577.15 2512.5,1548C 2541.81,1519.87 2572.81,1493.87 2605.5,1470C 2610.3,1464.44 2615.97,1460.11 2622.5,1457C 2646.09,1439.42 2670.76,1423.42 2696.5,1409C 2703.46,1402.42 2708.62,1394.58 2712,1385.5C 2721.64,1355.92 2727.31,1325.59 2729,1294.5C 2729.51,1252.48 2730.68,1210.48 2732.5,1168.5C 2733.15,1167.73 2733.48,1166.73 2733.5,1165.5C 2733.36,1163.97 2732.69,1162.97 2731.5,1162.5C 2730.79,1120.9 2729.95,1079.23 2729,1037.5C 2726.27,1008.48 2721.61,979.811 2715,951.5C 2713.76,942.596 2713.26,933.762 2713.5,925C 2715.88,914.803 2722.22,908.636 2732.5,906.5C 2740.51,906.923 2747.34,909.923 2753,915.5C 2757.25,921.996 2760.41,928.996 2762.5,936.5C 2762.59,937.496 2762.25,938.329 2761.5,939C 2762.09,939.464 2762.76,939.631 2763.5,939.5C 2768.02,959.548 2773.85,979.214 2781,998.5C 2801.02,1032.16 2823.68,1063.83 2849,1093.5C 2849.33,1094.5 2849.67,1095.5 2850,1096.5C 2862.69,1108.19 2875.02,1120.19 2887,1132.5C 2920.61,1169.11 2955.27,1204.78 2991,1239.5C 2998.74,1249.32 3006.24,1259.32 3013.5,1269.5C 3017.5,1279.52 3020.5,1289.85 3022.5,1300.5C 3021.47,1311.03 3017.14,1319.86 3009.5,1327C 2971.65,1339.73 2933.98,1353.06 2896.5,1367C 2880.71,1374.46 2864.71,1381.46 2848.5,1388C 2824.94,1399.94 2801.94,1412.61 2779.5,1426C 2773.04,1430.79 2766.87,1435.96 2761,1441.5C 2751.98,1456.18 2745.98,1472.18 2743,1489.5C 2738.84,1506.43 2738.5,1523.43 2742,1540.5C 2742.33,1550.84 2742.83,1561.18 2743.5,1571.5C 2741.36,1594.76 2744.86,1617.09 2754,1638.5C 2758.19,1644.01 2763.69,1646.17 2770.5,1645C 2780.58,1642.31 2790.58,1639.31 2800.5,1636C 2911.16,1581.34 3021.82,1526.67 3132.5,1472C 3141.91,1465.4 3150.74,1458.23 3159,1450.5C 3162.76,1443.12 3165.76,1435.45 3168,1427.5C 3172.58,1396.36 3177.91,1365.36 3184,1334.5C 3205.85,1243.42 3223.02,1151.42 3235.5,1058.5C 3233.43,1044.77 3225.43,1037.1 3211.5,1035.5C 3189.45,1037.68 3168.79,1044.18 3149.5,1055C 3144.01,1055.93 3138.51,1056.76 3133,1057.5C 3122.85,1056.36 3115.85,1051.02 3112,1041.5C 3111.16,1036.08 3111.49,1030.75 3113,1025.5C 3119.19,1015.81 3128.02,1010.48 3139.5,1009.5C 3142.72,1011.71 3146.05,1011.71 3149.5,1009.5C 3156.14,1008.72 3162.8,1008.39 3169.5,1008.5C 3170.53,1009.25 3171.7,1009.92 3173,1010.5C 3175.94,1009.87 3178.77,1009.21 3181.5,1008.5C 3213.86,1014.56 3238.03,1003.56 3254,975.5C 3264.66,937.215 3273.66,898.548 3281,859.5C 3285.69,846.14 3294.86,837.64 3308.5,834C 3344.35,823.498 3379.68,811.498 3414.5,798C 3459.78,786.352 3504.78,773.685 3549.5,760C 3575.7,754.227 3602.03,749.227 3628.5,745C 3655.35,736.595 3682.69,732.761 3710.5,733.5 Z M 3569.5,992.5 C 3564.83,992.5 3560.17,992.5 3555.5,992.5C 3544.17,992.5 3532.83,992.5 3521.5,992.5C 3513.83,992.5 3506.17,992.5 3498.5,992.5C 3468.5,993.055 3438.5,993.389 3408.5,993.5C 3397.17,993.5 3385.83,993.5 3374.5,993.5C 3352.8,993.919 3331.13,993.419 3309.5,992C 3296.65,989.148 3289.32,981.148 3287.5,968C 3290.17,947.998 3295.67,928.831 3304,910.5C 3307.75,903.517 3312.58,897.351 3318.5,892C 3347.51,874.827 3376.84,858.161 3406.5,842C 3414.07,838.881 3421.4,835.215 3428.5,831C 3432.5,829.667 3436.5,828.333 3440.5,827C 3460.27,823.871 3479.94,820.204 3499.5,816C 3519.78,810.128 3539.78,803.461 3559.5,796C 3588.83,789.333 3618.17,782.667 3647.5,776C 3658.24,773.819 3668.91,774.152 3679.5,777C 3682.56,779.723 3685.89,782.056 3689.5,784C 3696,790.14 3700.33,797.473 3702.5,806C 3702.17,806.333 3701.83,806.667 3701.5,807C 3703.97,826.089 3704.13,845.256 3702,864.5C 3696.25,901.601 3689.91,938.601 3683,975.5C 3676.7,983.435 3668.54,988.602 3658.5,991C 3628.87,993.798 3599.21,994.298 3569.5,992.5 Z M 2055.5,1238.5 C 2053.7,1237.54 2051.7,1236.88 2049.5,1236.5C 2025.32,1232.78 2000.99,1231.12 1976.5,1231.5C 1970.36,1230.51 1964.02,1230.18 1957.5,1230.5C 1957.17,1230.5 1956.83,1230.5 1956.5,1230.5C 1950.36,1229.51 1944.02,1229.18 1937.5,1229.5C 1900.83,1226.78 1864.16,1223.94 1827.5,1221C 1792.35,1215.39 1757.02,1211.39 1721.5,1209C 1715.09,1207.99 1708.76,1206.65 1702.5,1205C 1693.9,1200.96 1688.07,1194.46 1685,1185.5C 1684.33,1181.5 1684.33,1177.5 1685,1173.5C 1688.89,1157.16 1692.89,1140.82 1697,1124.5C 1699.2,1093.83 1704.87,1063.83 1714,1034.5C 1724.03,1000.1 1734.36,965.763 1745,931.5C 1749.97,910.422 1752.63,889.088 1753,867.5C 1764.5,850.495 1780.67,841.995 1801.5,842C 1816.25,841.656 1830.92,840.322 1845.5,838C 1877.45,830.913 1909.78,826.913 1942.5,826C 1985.84,825.236 2029.18,825.57 2072.5,827C 2082.51,829.682 2091.01,834.848 2098,842.5C 2111.38,870.644 2119.04,900.31 2121,931.5C 2122.97,965.835 2124.97,1000.17 2127,1034.5C 2129.49,1050.14 2131.83,1065.81 2134,1081.5C 2134.19,1094.85 2133.69,1108.18 2132.5,1121.5C 2133.02,1128.83 2133.52,1136.17 2134,1143.5C 2139.44,1168.13 2141.11,1192.8 2139,1217.5C 2135.78,1234.42 2125.78,1242.75 2109,1242.5C 2105.07,1243.31 2101.07,1243.98 2097,1244.5C 2083.16,1242.44 2069.33,1240.44 2055.5,1238.5 Z M 2400.5,1022.5 C 2423.69,1022.09 2446.69,1023.92 2469.5,1028C 2482.3,1032.43 2487.13,1041.26 2484,1054.5C 2475.36,1072.76 2467.69,1091.42 2461,1110.5C 2453.7,1134 2447.03,1157.67 2441,1181.5C 2426.11,1226.16 2410.45,1270.49 2394,1314.5C 2388.89,1325.51 2383.23,1336.17 2377,1346.5C 2365.31,1358.31 2352.48,1359.81 2338.5,1351C 2331.56,1345.27 2327.06,1338.11 2325,1329.5C 2323.89,1301.35 2323.39,1273.18 2323.5,1245C 2323.56,1186.14 2324.4,1127.31 2326,1068.5C 2328.88,1046.3 2341.04,1032.13 2362.5,1026C 2375.31,1024.71 2387.98,1023.54 2400.5,1022.5 Z M 2773.5,1134.5 C 2774.54,1133.07 2775.2,1131.4 2775.5,1129.5C 2777.69,1117.11 2781.19,1105.11 2786,1093.5C 2791.87,1086.99 2798.71,1085.83 2806.5,1090C 2812.03,1094.17 2817.19,1098.67 2822,1103.5C 2824.9,1110.29 2828.56,1116.63 2833,1122.5C 2855.77,1146.43 2877.6,1171.09 2898.5,1196.5C 2913.22,1211.93 2928.39,1226.93 2944,1241.5C 2951.12,1250.33 2957.12,1259.99 2962,1270.5C 2965.98,1283 2962.81,1293.16 2952.5,1301C 2948.33,1302.58 2944.66,1304.92 2941.5,1308C 2918.33,1318.51 2895,1328.84 2871.5,1339C 2847.29,1347.27 2822.96,1355.27 2798.5,1363C 2787.48,1366.14 2776.48,1366.14 2765.5,1363C 2760.13,1358.96 2756.29,1353.8 2754,1347.5C 2752.15,1335.23 2750.98,1322.9 2750.5,1310.5C 2751.19,1298.11 2752.36,1285.78 2754,1273.5C 2761.69,1240.28 2766.03,1206.62 2767,1172.5C 2768.85,1159.77 2771.02,1147.1 2773.5,1134.5 Z"/></g>
<g><path style="opacity:1" fill="#4f4a4d" d="M 3715.5,734.5 C 3713.59,734.784 3711.92,734.451 3710.5,733.5C 3712.26,732.739 3713.93,733.072 3715.5,734.5 Z"/></g>
<g><path style="opacity:1" fill="#050505" d="M 845.5,803.5 C 844.761,803.369 844.094,803.536 843.5,804C 844.337,805.011 844.67,806.178 844.5,807.5C 836.536,856.461 828.703,905.461 821,954.5C 813.014,983.113 805.347,1011.78 798,1040.5C 789.252,1093.07 781.252,1145.73 774,1198.5C 770.138,1218.95 765.805,1239.28 761,1259.5C 758.571,1277.12 756.571,1294.79 755,1312.5C 752.68,1320.77 750.847,1329.11 749.5,1337.5C 747.837,1339.44 747.171,1341.77 747.5,1344.5C 745.01,1357.78 742.843,1371.11 741,1384.5C 737.585,1416.15 734.418,1447.65 731.5,1479C 729.449,1485.34 727.949,1491.84 727,1498.5C 722.258,1538.37 720.258,1578.37 721,1618.5C 724.065,1647.48 726.398,1676.48 728,1705.5C 725.574,1714.59 719.741,1720.43 710.5,1723C 707.558,1724.12 704.558,1724.46 701.5,1724C 692.416,1722.09 684.916,1717.59 679,1710.5C 675.619,1704.36 672.619,1698.03 670,1691.5C 669.333,1686.17 669.333,1680.83 670,1675.5C 677.046,1658.73 682.379,1641.4 686,1623.5C 688.122,1605.21 689.789,1586.88 691,1568.5C 694.669,1552.49 698.336,1536.49 702,1520.5C 704.823,1486.16 707.823,1451.82 711,1417.5C 715.177,1401.95 718.843,1386.28 722,1370.5C 726.925,1318.36 734.925,1266.69 746,1215.5C 753.473,1137.02 762.307,1058.69 772.5,980.5C 771.568,971.602 766.901,968.768 758.5,972C 755.705,973.793 753.205,975.96 751,978.5C 733.736,1017.79 719.569,1058.13 708.5,1099.5C 707.761,1099.37 707.094,1099.54 706.5,1100C 707.252,1100.67 707.586,1101.5 707.5,1102.5C 705.422,1113.46 703.588,1124.46 702,1135.5C 692.438,1166.18 684.105,1197.18 677,1228.5C 655.197,1305.06 631.864,1381.06 607,1456.5C 602.676,1463.64 597.509,1470.14 591.5,1476C 588.583,1477.53 585.583,1478.86 582.5,1480C 552.198,1482.19 522.198,1486.52 492.5,1493C 476.824,1498.89 460.824,1503.56 444.5,1507C 416.06,1515.55 387.394,1523.22 358.5,1530C 318.769,1542.79 279.769,1557.13 241.5,1573C 219.309,1579.4 197.309,1586.4 175.5,1594C 157.501,1597.29 139.501,1597.29 121.5,1594C 111.363,1591.37 105.697,1584.87 104.5,1574.5C 105.861,1567.48 107.361,1560.48 109,1553.5C 146.549,1442.08 183.216,1330.41 219,1218.5C 224.001,1197.83 229.001,1177.16 234,1156.5C 247.612,1114.06 260.612,1071.4 273,1028.5C 277.439,1006.97 281.105,985.305 284,963.5C 288.602,941.03 295.602,919.363 305,898.5C 310.801,889.673 318.301,887.84 327.5,893C 330.094,895.086 332.094,897.586 333.5,900.5C 333.229,902.38 333.896,903.713 335.5,904.5C 341.265,928.348 340.432,952.014 333,975.5C 321.175,1003.63 309.342,1031.8 297.5,1060C 287.033,1092.7 278.2,1125.86 271,1159.5C 248.72,1221.95 227.053,1284.62 206,1347.5C 192.745,1389.6 181.745,1432.26 173,1475.5C 172.006,1489.33 171.173,1503.16 170.5,1517C 172.807,1532.31 181.64,1540.15 197,1540.5C 202.194,1540.29 207.361,1539.79 212.5,1539C 285.82,1516.01 359.82,1495.67 434.5,1478C 454.162,1472.34 473.829,1466.67 493.5,1461C 515.548,1456.39 537.548,1451.39 559.5,1446C 569.161,1441.67 576.994,1435.17 583,1426.5C 590.938,1403.52 598.771,1380.52 606.5,1357.5C 608.481,1356.89 608.815,1355.89 607.5,1354.5C 607.337,1352.14 607.503,1349.81 608,1347.5C 623.018,1302.43 638.351,1257.43 654,1212.5C 658.323,1196.86 662.656,1181.19 667,1165.5C 668.667,1156.5 670.333,1147.5 672,1138.5C 685.185,1098.94 697.185,1058.94 708,1018.5C 739.045,929.407 770.379,840.407 802,751.5C 809.984,737.359 819.651,736.026 831,747.5C 841.514,759.527 846.68,773.527 846.5,789.5C 846.314,794.186 845.981,798.853 845.5,803.5 Z"/></g>
<g><path style="opacity:1" fill="#544f53" d="M 3741.5,778.5 C 3743.7,783.937 3743.7,789.27 3741.5,794.5C 3741.5,789.167 3741.5,783.833 3741.5,778.5 Z"/></g>
<g><path style="opacity:1" fill="#403b3f" d="M 2050.5,790.5 C 2054.5,790.5 2058.5,790.5 2062.5,790.5C 2058.39,792.703 2054.39,792.703 2050.5,790.5 Z"/></g>
<g><path style="opacity:1" fill="#403b3e" d="M 2006.5,791.5 C 2009.83,791.5 2013.17,791.5 2016.5,791.5C 2013.05,793.707 2009.72,793.707 2006.5,791.5 Z"/></g>
<g><path style="opacity:1" fill="#3f3a3e" d="M 1946.5,792.5 C 1950.5,792.5 1954.5,792.5 1958.5,792.5C 1955.77,793.205 1952.94,793.872 1950,794.5C 1948.7,793.915 1947.53,793.249 1946.5,792.5 Z"/></g>
<g><path style="opacity:1" fill="#524c50" d="M 1923.5,794.5 C 1928.64,793.512 1933.97,793.179 1939.5,793.5C 1937.78,794.224 1935.95,794.891 1934,795.5C 1930.61,794.544 1927.11,794.211 1923.5,794.5 Z"/></g>
<g><path style="opacity:1" fill="#464145" d="M 845.5,803.5 C 845.768,805.099 845.434,806.432 844.5,807.5C 844.67,806.178 844.337,805.011 843.5,804C 844.094,803.536 844.761,803.369 845.5,803.5 Z"/></g>
<g><path style="opacity:1" fill="#595357" d="M 2137.5,832.5 C 2139.12,835.171 2139.78,838.171 2139.5,841.5C 2138.34,838.727 2137.68,835.727 2137.5,832.5 Z"/></g>
<g><path style="opacity:1" fill="#534e51" d="M 2139.5,841.5 C 2141.12,844.171 2141.78,847.171 2141.5,850.5C 2140.34,847.727 2139.68,844.727 2139.5,841.5 Z"/></g>
<g><path style="opacity:1" fill="#403b3e" d="M 1605.5,843.5 C 1610.17,843.5 1614.83,843.5 1619.5,843.5C 1614.73,845.701 1610.06,845.701 1605.5,843.5 Z"/></g>
<g><path style="opacity:1" fill="#494448" d="M 2148.5,886.5 C 2150.17,889.507 2150.84,892.84 2150.5,896.5C 2149.42,893.373 2148.75,890.04 2148.5,886.5 Z"/></g>
<g><path style="opacity:1" fill="#716b6f" d="M 333.5,900.5 C 334.674,901.514 335.34,902.847 335.5,904.5C 333.896,903.713 333.229,902.38 333.5,900.5 Z"/></g>
<g><path style="opacity:1" fill="#484347" d="M 2762.5,936.5 C 2763.4,937.209 2763.74,938.209 2763.5,939.5C 2762.76,939.631 2762.09,939.464 2761.5,939C 2762.25,938.329 2762.59,937.496 2762.5,936.5 Z"/></g>
<g><path style="opacity:1" fill="#040404" d="M 978.5,957.5 C 978.586,958.496 978.252,959.329 977.5,960C 978.094,960.464 978.761,960.631 979.5,960.5C 981.21,978.267 980.377,995.934 977,1013.5C 965.825,1052.05 955.158,1090.72 945,1129.5C 938.7,1155.37 933.033,1181.37 928,1207.5C 925.495,1235.13 923.495,1262.8 922,1290.5C 919.157,1312.38 915.157,1334.05 910,1355.5C 904.897,1387.74 904.23,1420.08 908,1452.5C 909.147,1461.65 912.98,1469.48 919.5,1476C 923.608,1479.22 928.274,1481.05 933.5,1481.5C 972.532,1475.88 1011.53,1470.05 1050.5,1464C 1055.1,1462.13 1059.77,1460.47 1064.5,1459C 1093.35,1453.26 1122.35,1448.26 1151.5,1444C 1180.51,1435.4 1210.18,1431.24 1240.5,1431.5C 1256.87,1431.59 1273.2,1432.26 1289.5,1433.5C 1290.88,1434.23 1292.38,1434.9 1294,1435.5C 1297.86,1434.8 1302.03,1434.47 1306.5,1434.5C 1320.02,1433.64 1333.02,1435.81 1345.5,1441C 1348.02,1442.7 1350.35,1444.53 1352.5,1446.5C 1352.5,1447.83 1353.17,1448.5 1354.5,1448.5C 1362.41,1460.49 1361.07,1471.65 1350.5,1482C 1346.23,1485.8 1341.23,1487.97 1335.5,1488.5C 1295.82,1487.02 1256.16,1485.19 1216.5,1483C 1175.02,1480.75 1134.02,1484.08 1093.5,1493C 1050.11,1504.35 1006.77,1516.02 963.5,1528C 948.175,1531.33 932.842,1534.66 917.5,1538C 905.565,1539.99 893.565,1540.66 881.5,1540C 858.383,1532.63 848.883,1516.8 853,1492.5C 857.784,1464.46 862.784,1436.46 868,1408.5C 872.016,1370.37 877.016,1332.37 883,1294.5C 895.605,1236.2 906.272,1177.54 915,1118.5C 916.445,1109.28 918.779,1100.28 922,1091.5C 925.107,1062.88 927.774,1034.21 930,1005.5C 932.231,989.81 935.898,974.477 941,959.5C 944.217,953.563 948.051,948.063 952.5,943C 962.533,938.561 970.699,941.061 977,950.5C 977.977,952.74 978.477,955.073 978.5,957.5 Z"/></g>
<g><path style="opacity:1" fill="#484347" d="M 978.5,957.5 C 979.404,958.209 979.737,959.209 979.5,960.5C 978.761,960.631 978.094,960.464 977.5,960C 978.252,959.329 978.586,958.496 978.5,957.5 Z"/></g>
<g><path style="opacity:1" fill="#544f53" d="M 2481.5,975.5 C 2487.64,974.51 2493.98,974.177 2500.5,974.5C 2498.44,975.216 2496.28,975.883 2494,976.5C 2489.93,975.536 2485.77,975.203 2481.5,975.5 Z"/></g>
<g><path style="opacity:1" fill="#443f43" d="M 2342.5,989.5 C 2345.83,989.5 2349.17,989.5 2352.5,989.5C 2350.47,991.121 2348.3,991.788 2346,991.5C 2344.7,990.915 2343.53,990.249 2342.5,989.5 Z"/></g>
<g><path style="opacity:1" fill="#484347" d="M 2560.5,990.5 C 2561.4,991.209 2561.74,992.209 2561.5,993.5C 2560.76,993.631 2560.09,993.464 2559.5,993C 2560.25,992.329 2560.59,991.496 2560.5,990.5 Z"/></g>
<g><path style="opacity:1" fill="#3f3a3e" d="M 3498.5,992.5 C 3506.17,992.5 3513.83,992.5 3521.5,992.5C 3518.44,993.201 3515.27,993.868 3512,994.5C 3507.71,994.659 3503.21,993.992 3498.5,992.5 Z"/></g>
<g><path style="opacity:1" fill="#423d40" d="M 3555.5,992.5 C 3560.17,992.5 3564.83,992.5 3569.5,992.5C 3567.78,993.224 3565.95,993.891 3564,994.5C 3561.21,994.304 3558.38,993.637 3555.5,992.5 Z"/></g>
<g><path style="opacity:1" fill="#3c373b" d="M 3374.5,993.5 C 3385.83,993.5 3397.17,993.5 3408.5,993.5C 3404.43,994.193 3400.27,994.86 3396,995.5C 3390.64,995.451 3385.31,995.451 3380,995.5C 3378.05,994.891 3376.22,994.224 3374.5,993.5 Z"/></g>
<g><path style="opacity:1" fill="#3f3a3e" d="M 3169.5,1008.5 C 3173.5,1008.5 3177.5,1008.5 3181.5,1008.5C 3178.77,1009.21 3175.94,1009.87 3173,1010.5C 3171.7,1009.92 3170.53,1009.25 3169.5,1008.5 Z"/></g>
<g><path style="opacity:1" fill="#403b3e" d="M 3139.5,1009.5 C 3142.83,1009.5 3146.17,1009.5 3149.5,1009.5C 3146.05,1011.71 3142.72,1011.71 3139.5,1009.5 Z"/></g>
<g><path style="opacity:1" fill="#443f43" d="M 2163.5,1082.5 C 2165.01,1085.54 2165.68,1088.88 2165.5,1092.5C 2164.22,1089.41 2163.55,1086.08 2163.5,1082.5 Z"/></g>
<g><path style="opacity:1" fill="#484347" d="M 708.5,1099.5 C 708.737,1100.79 708.404,1101.79 707.5,1102.5C 707.586,1101.5 707.252,1100.67 706.5,1100C 707.094,1099.54 707.761,1099.37 708.5,1099.5 Z"/></g>
<g><path style="opacity:1" fill="#585256" d="M 2775.5,1129.5 C 2775.2,1131.4 2774.54,1133.07 2773.5,1134.5C 2773.12,1132.3 2773.79,1130.64 2775.5,1129.5 Z"/></g>
<g><path style="opacity:1" fill="#7c7679" d="M 2731.5,1162.5 C 2732.69,1162.97 2733.36,1163.97 2733.5,1165.5C 2733.48,1166.73 2733.15,1167.73 2732.5,1168.5C 2732.67,1166.38 2732.34,1164.38 2731.5,1162.5 Z"/></g>
<g><path style="opacity:1" fill="#4a4549" d="M 1593.5,1193.5 C 1600.5,1193.5 1607.5,1193.5 1614.5,1193.5C 1609.04,1194.67 1603.88,1195.34 1599,1195.5C 1597.05,1194.89 1595.22,1194.22 1593.5,1193.5 Z"/></g>
<g><path style="opacity:1" fill="#534d51" d="M 1937.5,1229.5 C 1944.02,1229.18 1950.36,1229.51 1956.5,1230.5C 1951.03,1230.39 1945.86,1230.72 1941,1231.5C 1939.7,1230.92 1938.53,1230.25 1937.5,1229.5 Z"/></g>
<g><path style="opacity:1" fill="#534d51" d="M 1957.5,1230.5 C 1964.02,1230.18 1970.36,1230.51 1976.5,1231.5C 1972.23,1231.2 1968.07,1231.54 1964,1232.5C 1961.72,1231.88 1959.56,1231.22 1957.5,1230.5 Z"/></g>
<g><path style="opacity:1" fill="#544f52" d="M 2049.5,1236.5 C 2051.7,1236.88 2053.7,1237.54 2055.5,1238.5C 2052.99,1238.95 2050.99,1238.28 2049.5,1236.5 Z"/></g>
<g><path style="opacity:1" fill="#524c50" d="M 749.5,1337.5 C 749.279,1340.07 748.612,1342.4 747.5,1344.5C 747.171,1341.77 747.837,1339.44 749.5,1337.5 Z"/></g>
<g><path style="opacity:1" fill="#484347" d="M 607.5,1354.5 C 608.815,1355.89 608.481,1356.89 606.5,1357.5C 606.263,1356.21 606.596,1355.21 607.5,1354.5 Z"/></g>
<g><path style="opacity:1" fill="#504a4e" d="M 1289.5,1433.5 C 1295.36,1433.18 1301.02,1433.51 1306.5,1434.5C 1302.03,1434.47 1297.86,1434.8 1294,1435.5C 1292.38,1434.9 1290.88,1434.23 1289.5,1433.5 Z"/></g>
<g><path style="opacity:1" fill="#605a5e" d="M 1352.5,1446.5 C 1353.5,1446.83 1354.17,1447.5 1354.5,1448.5C 1353.17,1448.5 1352.5,1447.83 1352.5,1446.5 Z"/></g>
<g><path style="opacity:1" fill="#4c474b" d="M 2333.5,1550.5 C 2334.45,1551.92 2334.78,1553.59 2334.5,1555.5C 2333.71,1555.22 2333.04,1554.72 2332.5,1554C 2333.34,1552.99 2333.67,1551.82 2333.5,1550.5 Z"/></g>
<g><path style="opacity:1" fill="#544f52" d="M 2358.5,1663.5 C 2360.7,1663.88 2362.7,1664.54 2364.5,1665.5C 2361.99,1665.95 2359.99,1665.28 2358.5,1663.5 Z"/></g>
</svg>
